<svg xmlns="http://www.w3.org/2000/svg" width="24.001" height="24" viewBox="0 0 24.001 24"><g transform="translate(-448 -43)"><rect width="24" height="24" transform="translate(448 43)" fill="none" opacity="0"/><g transform="translate(448 65.875)"><path d="M.75-12H2.893a8.024,8.024,0,0,0,8.035-7.863c0-1.591,3.215-1.792,3.215,1.226a30.015,30.015,0,0,1-1.071,5.816l-.021.071h8.7a1.5,1.5,0,0,1,1.5,1.5,1.5,1.5,0,0,1-1.5,1.5h-1.5a1.5,1.5,0,0,1,1.5,1.5,1.5,1.5,0,0,1-1.5,1.5H19.5A1.5,1.5,0,0,1,21-5.25a1.5,1.5,0,0,1-1.5,1.5h-.75a1.5,1.5,0,0,1,1.5,1.5,1.5,1.5,0,0,1-1.5,1.5H11.464C7.179-.75,9.321-3,.75-3" fill="none" stroke="#fff" stroke-linecap="round" stroke-linejoin="round" stroke-width="1.5"/></g></g></svg>