<svg xmlns="http://www.w3.org/2000/svg" width="24.001" height="24.302" viewBox="0 0 24.001 24.302"><g transform="translate(-380 -76.698)"><rect width="24" height="24" transform="translate(380 77)" fill="none" opacity="0"/><g transform="translate(378.823 101.395)"><path d="M21.428-16.2c1.862.8,3,1.878,3,3.059,0,2.485-5.037,4.5-11.25,4.5s-11.25-2.015-11.25-4.5,5.037-4.5,11.25-4.5" fill="none" stroke="#fff" stroke-linecap="round" stroke-linejoin="round" stroke-width="1.5"/><path d="M1.928-13.145v1.5c0,5.8,5.037,10.5,11.25,10.5s11.25-4.7,11.25-10.5v-1.5" fill="none" stroke="#fff" stroke-linecap="round" stroke-linejoin="round" stroke-width="1.5"/><path d="M20.678-11.645c0,1.657-3.358,3-7.5,3s-7.5-1.343-7.5-3c0-1.343,2.207-2.48,5.25-2.863" fill="none" stroke="#fff" stroke-linecap="round" stroke-linejoin="round" stroke-width="1.5"/><path d="M9.428-11.645h1.5" fill="none" stroke="#fff" stroke-linecap="round" stroke-linejoin="round" stroke-width="1.5"/><path d="M17.528-15.695l6.15-7.95" fill="none" stroke="#fff" stroke-linecap="round" stroke-linejoin="round" stroke-width="1.5"/><path d="M17.82-12.394a2.548,2.548,0,0,0-.292-3.3c-.994-.746-2.606-.276-3.6,1.05a3.5,3.5,0,0,0-.741,2.25" fill="none" stroke="#fff" stroke-linecap="round" stroke-linejoin="round" stroke-width="1.5"/></g></g></svg>