<svg xmlns="http://www.w3.org/2000/svg" width="24" height="24.03" viewBox="0 0 24 24.03"><g transform="translate(-482 -77)"><rect width="24" height="24" transform="translate(482 77)" fill="none" opacity="0"/><g transform="translate(482 101.03)"><path d="M6.75-6.75c3.313,0,6-1.343,6-3s-2.687-3-6-3-6,1.343-6,3S3.437-6.75,6.75-6.75Z" fill="none" stroke="#fff" stroke-linecap="round" stroke-linejoin="round" stroke-width="1.5"/><path d="M.75-9.75v6c0,1.657,2.686,3,6,3s6-1.343,6-3v-6" fill="none" stroke="#fff" stroke-linecap="round" stroke-linejoin="round" stroke-width="1.5"/><path d="M12.75-6.75c0,1.657-2.686,3-6,3s-6-1.343-6-3" fill="none" stroke="#fff" stroke-linecap="round" stroke-linejoin="round" stroke-width="1.5"/><path d="M15.75-8.25h6a1.5,1.5,0,0,0,1.5-1.5v-12a1.5,1.5,0,0,0-1.5-1.5H2.25a1.5,1.5,0,0,0-1.5,1.5v7.507" fill="none" stroke="#fff" stroke-linecap="round" stroke-linejoin="round" stroke-width="1.5"/><path d="M9-15.75a3,3,0,0,1,2.287-2.914,3,3,0,0,1,3.374,1.529,3,3,0,0,1-.682,3.64" fill="none" stroke="#fff" stroke-linecap="round" stroke-linejoin="round" stroke-width="1.5"/><path d="M4.5-19.875a.375.375,0,0,1,.375.375.375.375,0,0,1-.375.375.375.375,0,0,1-.375-.375.375.375,0,0,1,.375-.375" fill="none" stroke="#fff" stroke-linecap="round" stroke-linejoin="round" stroke-width="1.5"/><path d="M19.5-12.375a.375.375,0,0,1,.375.375.375.375,0,0,1-.375.375A.375.375,0,0,1,19.125-12a.375.375,0,0,1,.375-.375" fill="none" stroke="#fff" stroke-linecap="round" stroke-linejoin="round" stroke-width="1.5"/></g></g></svg>