<svg xmlns="http://www.w3.org/2000/svg" width="24.041" height="24" viewBox="0 0 24.041 24"><g transform="translate(-379.983 -43)"><rect width="24" height="24" transform="translate(380 43)" fill="none" opacity="0"/><g transform="translate(380.001 66.55)"><path d="M5.253-.75h13.5" fill="none" stroke="#fff" stroke-linecap="round" stroke-linejoin="round" stroke-width="1.5"/><path d="M20.553-19.328a3.827,3.827,0,0,0-3.49.746A5.19,5.19,0,0,0,12-22.35a5.19,5.19,0,0,0-5.06,3.768,3.854,3.854,0,0,0-3.551-.729A3.655,3.655,0,0,0,.874-16.8a3.491,3.491,0,0,0,.656,3.119A3.812,3.812,0,0,0,4.5-12.272a3.783,3.783,0,0,0,.75-.1v7.3a1.471,1.471,0,0,0,1.5,1.44h10.5a1.471,1.471,0,0,0,1.5-1.44v-7.3a3.783,3.783,0,0,0,.75.1,3.7,3.7,0,0,0,3.706-3.092A3.6,3.6,0,0,0,20.553-19.328Z" fill="none" stroke="#fff" stroke-linecap="round" stroke-linejoin="round" stroke-width="1.5"/><path d="M9.753-3.63V-7.95" fill="none" stroke="#fff" stroke-linecap="round" stroke-linejoin="round" stroke-width="1.5"/><path d="M14.253-3.63V-7.95" fill="none" stroke="#fff" stroke-linecap="round" stroke-linejoin="round" stroke-width="1.5"/></g></g></svg>