<svg xmlns="http://www.w3.org/2000/svg" width="48" height="48" viewBox="0 0 48 48"><g transform="translate(-513 -216)"><rect width="48" height="48" transform="translate(513 216)" fill="none" opacity="0"/><g transform="translate(512.5 216)"><path d="M40.5,12H8.5a4,4,0,0,0-4,4V32a4,4,0,0,0,4,4h32a4,4,0,0,0,4-4V16A4,4,0,0,0,40.5,12Z" fill="none" stroke="#fff" stroke-linecap="round" stroke-linejoin="round" stroke-width="4"/><path d="M24.5,28a4,4,0,1,0-4-4A4,4,0,0,0,24.5,28Z" fill="none" stroke="#fff" stroke-linecap="round" stroke-linejoin="round" stroke-width="4"/><path d="M12.5,24h.02M36.5,24h.02" fill="none" stroke="#fff" stroke-linecap="round" stroke-linejoin="round" stroke-width="4"/></g></g></svg>