<svg xmlns="http://www.w3.org/2000/svg" width="24" height="24" viewBox="0 0 24 24"><g transform="translate(-550 -77)"><rect width="24" height="24" transform="translate(550 77)" fill="none" opacity="0"/><g transform="translate(550 101)"><path d="M.75-18.75a1.5,1.5,0,0,1,1.5-1.5h19.5a1.5,1.5,0,0,1,1.5,1.5v16.5a1.5,1.5,0,0,1-1.5,1.5H2.25a1.5,1.5,0,0,1-1.5-1.5Z" fill="none" stroke="#222" stroke-linecap="round" stroke-linejoin="round" stroke-width="1.5"/><path d="M.75-14.25h22.5" fill="none" stroke="#222" stroke-linecap="round" stroke-linejoin="round" stroke-width="1.5"/><path d="M6.75-18v-5.25" fill="none" stroke="#222" stroke-linecap="round" stroke-linejoin="round" stroke-width="1.5"/><path d="M17.25-18v-5.25" fill="none" stroke="#222" stroke-linecap="round" stroke-linejoin="round" stroke-width="1.5"/><path d="M5.625-10.5a.375.375,0,0,0-.375.375.375.375,0,0,0,.375.375A.375.375,0,0,0,6-10.125a.375.375,0,0,0-.375-.375" fill="none" stroke="#222" stroke-linecap="round" stroke-linejoin="round" stroke-width="1.5"/><path d="M5.625-5.25a.375.375,0,0,0-.375.375.375.375,0,0,0,.375.375A.375.375,0,0,0,6-4.875a.375.375,0,0,0-.375-.375" fill="none" stroke="#222" stroke-linecap="round" stroke-linejoin="round" stroke-width="1.5"/><path d="M12-10.5a.375.375,0,0,0-.375.375A.375.375,0,0,0,12-9.75a.375.375,0,0,0,.375-.375A.375.375,0,0,0,12-10.5" fill="none" stroke="#222" stroke-linecap="round" stroke-linejoin="round" stroke-width="1.5"/><path d="M12-5.25a.375.375,0,0,0-.375.375A.375.375,0,0,0,12-4.5a.375.375,0,0,0,.375-.375A.375.375,0,0,0,12-5.25" fill="none" stroke="#222" stroke-linecap="round" stroke-linejoin="round" stroke-width="1.5"/><path d="M18.375-10.5a.375.375,0,0,0-.375.375.375.375,0,0,0,.375.375.375.375,0,0,0,.375-.375.375.375,0,0,0-.375-.375" fill="none" stroke="#222" stroke-linecap="round" stroke-linejoin="round" stroke-width="1.5"/><path d="M18.375-5.25A.375.375,0,0,0,18-4.875a.375.375,0,0,0,.375.375.375.375,0,0,0,.375-.375.375.375,0,0,0-.375-.375" fill="none" stroke="#222" stroke-linecap="round" stroke-linejoin="round" stroke-width="1.5"/></g></g></svg>