<svg xmlns="http://www.w3.org/2000/svg" width="24" height="24" viewBox="0 0 24 24"><g transform="translate(-414 -77)"><rect width="24" height="24" transform="translate(414 77)" fill="none" opacity="0"/><g transform="translate(414 101)"><path d="M.75-11.75a1.5,1.5,0,0,1,1.5-1.5h1.5a1.5,1.5,0,0,1,1.5,1.5v9.5a1.5,1.5,0,0,1-1.5,1.5H2.25a1.5,1.5,0,0,1-1.5-1.5Z" fill="#fff" stroke="#fff" stroke-linecap="round" stroke-linejoin="round" stroke-width="1.5"/><path d="M9.751-16.75a1.5,1.5,0,0,1,1.5-1.5h1.5a1.5,1.5,0,0,1,1.5,1.5v14.5a1.5,1.5,0,0,1-1.5,1.5h-1.5a1.5,1.5,0,0,1-1.5-1.5Z" fill="none" stroke="#fff" stroke-linecap="round" stroke-linejoin="round" stroke-width="1.5"/><path d="M18.75-21.75a1.5,1.5,0,0,1,1.5-1.5h1.5a1.5,1.5,0,0,1,1.5,1.5v19.5a1.5,1.5,0,0,1-1.5,1.5h-1.5a1.5,1.5,0,0,1-1.5-1.5Z" fill="none" stroke="#fff" stroke-linecap="round" stroke-linejoin="round" stroke-width="1.5"/></g></g></svg>