<svg xmlns="http://www.w3.org/2000/svg" width="24" height="24" viewBox="0 0 24 24"><g transform="translate(-448 -77)"><rect width="24" height="24" transform="translate(448 77)" fill="none" opacity="0"/><g transform="translate(-1.25 -72.25)"><path d="M5.25-5.25h7.5" transform="translate(451.75 173.25)" fill="none" stroke="#fff" stroke-linecap="round" stroke-linejoin="round" stroke-width="1.5"/><path d="M5.25-9.75h13.5" transform="translate(449.25 174.25)" fill="none" stroke="#fff" stroke-linecap="round" stroke-linejoin="round" stroke-width="1.5"/><path d="M5.25-21.75h-3a1.5,1.5,0,0,0-1.5,1.5v18a1.5,1.5,0,0,0,1.5,1.5h19.5a1.5,1.5,0,0,0,1.5-1.5v-18a1.5,1.5,0,0,0-1.5-1.5H11.25" transform="translate(449.25 173.25)" fill="none" stroke="#fff" stroke-linecap="round" stroke-linejoin="round" stroke-width="1.5"/><path d="M11.25-12.75,8.25-15l-3,2.25V-22.5a.754.754,0,0,1,.219-.531A.751.751,0,0,1,6-23.25h4.5a.75.75,0,0,1,.75.75Z" transform="translate(449.25 173.25)" fill="none" stroke="#fff" stroke-linecap="round" stroke-linejoin="round" stroke-width="1.5"/><path d="M7.907-22.135l.845,1.665h1.441a.4.4,0,0,1,.373.241.4.4,0,0,1-.089.436l-1.322,1.3.732,1.682a.4.4,0,0,1-.1.454.4.4,0,0,1-.464.045l-1.771-1-1.771,1a.4.4,0,0,1-.464-.045.4.4,0,0,1-.1-.454l.733-1.682L4.618-19.8a.394.394,0,0,1-.089-.436.394.394,0,0,1,.373-.242H6.342l.846-1.662a.406.406,0,0,1,.359-.217A.406.406,0,0,1,7.907-22.135Z" transform="translate(459.002 177.258)" fill="#fff"/></g></g></svg>