<svg width="96" height="96" viewBox="0 0 96 96" fill="none" xmlns="http://www.w3.org/2000/svg">
<path fill-rule="evenodd" clip-rule="evenodd" d="M31.467 38.282C23.0583 25.2018 32.45 7.99945 47.9998 7.99945C63.5496 7.99945 72.9413 25.2018 64.5326 38.282L49.1826 62.1598C48.6291 63.0208 47.3705 63.0208 46.8171 62.1598L31.467 38.282ZM55.9999 27.9995C55.9999 32.4178 52.4182 35.9995 47.9999 35.9995C43.5816 35.9995 39.9999 32.4178 39.9999 27.9995C39.9999 23.5812 43.5816 19.9995 47.9999 19.9995C52.4182 19.9995 55.9999 23.5812 55.9999 27.9995ZM57.0703 64.0003C56.4016 64.0003 55.7771 64.3345 55.4062 64.8909L49.664 73.5042C48.8724 74.6916 47.1274 74.6916 46.3358 73.5042L40.5936 64.8909C40.2227 64.3345 39.5982 64.0003 38.9295 64.0003H32.8283C32.2979 64.0003 31.7892 64.211 31.4141 64.5861L11.414 84.5862C10.1541 85.8461 11.0464 88.0004 12.8282 88.0004H63.1716C63.702 88.0004 64.2107 87.7897 64.5858 87.4146L84.5859 67.4145C85.8458 66.1546 84.9535 64.0003 83.1716 64.0003H57.0703Z" fill="#333333"/>
</svg>
