<?xml version="1.0" encoding="UTF-8" ?>
<!DOCTYPE svg PUBLIC "-//W3C//DTD SVG 1.1//EN" "http://www.w3.org/Graphics/SVG/1.1/DTD/svg11.dtd">
<svg width="165pt" height="119pt" viewBox="0 0 165 119" version="1.1" xmlns="http://www.w3.org/2000/svg">
<path fill="#f4a929" d=" M 5.51 11.87 C 7.53 10.83 9.84 11.25 12.01 11.21 C 16.98 11.34 21.96 11.09 26.93 11.31 C 29.17 11.30 31.09 13.16 31.40 15.33 C 32.96 22.89 34.39 30.48 35.92 38.06 C 33.39 29.18 26.71 21.93 18.86 17.32 C 14.71 14.83 10.08 13.38 5.51 11.87 Z" />
<path fill="#1b4da2" d=" M 48.75 11.23 C 53.06 11.28 57.36 11.26 61.66 11.23 C 55.12 26.86 49.02 42.67 42.34 58.24 C 38.14 58.11 33.94 58.17 29.74 58.17 C 26.02 44.58 22.55 30.92 18.86 17.32 C 26.71 21.93 33.39 29.18 35.92 38.06 C 36.30 39.78 36.57 41.54 36.90 43.28 C 40.82 32.59 44.79 21.91 48.75 11.23 Z" />
<path fill="#1b4da2" d=" M 66.49 11.21 C 70.54 11.24 74.59 11.24 78.64 11.21 C 76.15 26.87 73.53 42.51 71.10 58.18 C 67.07 58.19 63.04 58.19 59.00 58.18 C 61.32 42.50 64.05 26.88 66.49 11.21 Z" />
<path fill="#1b4da2" d=" M 90.16 14.16 C 97.42 9.39 106.91 9.53 114.94 12.17 C 114.57 15.64 113.99 19.08 113.39 22.51 C 109.12 20.46 104.14 19.55 99.50 20.74 C 97.31 21.26 95.15 23.98 96.97 26.02 C 100.71 29.85 106.60 30.72 110.12 34.89 C 114.20 38.88 114.05 45.60 111.27 50.27 C 108.33 55.20 102.67 57.78 97.16 58.52 C 90.93 59.17 84.44 58.78 78.60 56.37 C 79.22 52.87 79.74 49.35 80.37 45.85 C 85.42 48.46 91.28 49.77 96.91 48.52 C 98.82 47.88 100.79 46.31 100.62 44.07 C 99.99 41.40 97.20 40.26 95.03 39.05 C 90.82 36.98 86.29 34.44 84.40 29.89 C 82.05 24.14 85.16 17.41 90.16 14.16 Z" />
<path fill="#1b4da2" d=" M 129.99 16.02 C 130.80 13.86 132.40 11.51 134.93 11.38 C 138.65 11.12 142.39 11.34 146.11 11.27 C 149.44 26.91 152.66 42.56 155.94 58.20 C 152.20 58.21 148.46 58.21 144.72 58.22 C 144.19 55.87 143.69 53.51 143.21 51.14 C 138.02 51.14 132.84 51.15 127.66 51.12 C 126.83 53.49 125.97 55.86 125.08 58.21 C 120.84 58.21 116.60 58.21 112.36 58.22 C 118.22 44.15 124.14 30.10 129.99 16.02 Z" />
<path fill="#ffffff" d=" M 131.19 41.46 C 133.45 35.65 135.30 29.67 137.83 23.97 C 138.58 29.87 140.05 35.65 141.26 41.47 C 137.90 41.47 134.55 41.47 131.19 41.46 Z" />
<path fill="#161314" d=" M 83.22 89.71 C 87.74 89.79 93.56 89.03 96.44 93.40 C 99.48 98.85 97.23 106.78 91.58 109.61 C 87.96 111.54 83.70 110.71 79.78 110.89 C 80.98 103.84 81.91 96.74 83.22 89.71 Z" />
<path fill="#181415" d=" M 103.36 89.75 C 106.93 89.75 110.50 89.74 114.07 89.77 C 113.92 90.40 113.63 91.65 113.48 92.28 C 110.88 92.41 108.28 92.32 105.68 92.34 C 105.43 94.45 105.10 96.55 104.66 98.62 C 106.69 98.63 108.72 98.63 110.76 98.64 C 110.76 99.31 110.74 100.65 110.74 101.32 C 108.61 101.31 106.49 101.30 104.36 101.28 C 103.92 103.69 103.51 106.10 103.12 108.52 C 105.88 108.56 108.64 108.55 111.41 108.56 C 111.28 109.10 111.03 110.17 110.90 110.71 C 107.29 111.11 103.64 110.80 100.01 110.89 C 101.07 103.83 102.16 96.78 103.36 89.75 Z" />
<path fill="#191617" d=" M 114.35 110.94 C 115.52 103.88 116.60 96.80 117.72 89.73 C 120.76 89.86 124.10 89.25 126.84 90.91 C 130.02 93.42 128.46 98.51 124.99 99.93 C 128.88 101.52 128.80 107.29 125.52 109.44 C 122.27 111.70 118.05 110.64 114.35 110.94 Z" />
<path fill="#181415" d=" M 134.07 89.87 C 134.79 89.82 136.23 89.72 136.96 89.67 C 135.82 96.77 134.79 103.88 133.55 110.96 C 132.85 110.94 131.44 110.90 130.74 110.88 C 132.02 103.91 133.00 96.88 134.07 89.87 Z" />
<path fill="#171314" d=" M 140.64 89.82 C 145.67 89.64 150.70 89.81 155.74 89.75 C 155.74 90.40 155.74 91.70 155.75 92.35 C 153.61 92.34 151.47 92.33 149.33 92.31 C 148.13 98.46 147.46 104.70 146.27 110.84 C 145.58 110.89 144.21 110.98 143.53 111.02 C 144.50 104.79 145.41 98.55 146.49 92.34 C 144.35 92.34 142.21 92.33 140.07 92.32 C 140.21 91.69 140.50 90.44 140.64 89.82 Z" />
<path fill="#ffffff" d=" M 85.58 92.26 C 88.73 92.22 92.73 92.11 94.30 95.48 C 95.53 99.48 94.73 104.55 91.05 107.03 C 88.71 108.80 85.65 108.55 82.89 108.60 C 83.89 103.17 84.55 97.69 85.58 92.26 Z" />
<path fill="#ffffff" d=" M 119.96 92.23 C 122.18 92.14 125.75 91.84 125.86 94.97 C 125.82 98.48 121.79 98.91 119.12 98.87 C 119.39 96.65 119.69 94.45 119.96 92.23 Z" />
<path fill="#ffffff" d=" M 118.69 101.11 C 120.74 101.33 123.73 100.69 124.80 102.98 C 125.93 104.78 124.91 107.30 123.03 108.14 C 121.25 108.83 119.29 108.66 117.42 108.79 C 117.88 106.23 118.34 103.68 118.69 101.11 Z" />
</svg>
